<svg xmlns="http://www.w3.org/2000/svg" width="1200" height="750" viewBox="0 0 1200 750"><rect width="1200" height="750" fill="#1b1b1a"/><defs><radialGradient id="glow"><stop stop-color="#a25c45" stop-opacity=".5"/><stop offset="1" stop-color="#1b1b1a" stop-opacity="0"/></radialGradient><linearGradient id="ink"><stop stop-color="#f2d7b4"/><stop offset="1" stop-color="#bf7c8b"/></linearGradient></defs><rect x="0" y="0" width="1200" height="750" fill="#1b1b1a" rx="0"/><rect x="600" y="50" width="600" height="650" fill="url(#glow)" rx="0"/><text x="64" y="74" fill="#e9ded0" font-family="Arial, sans-serif" font-size="24" >FORM / 01</text><text x="780" y="74" fill="#b8a696" font-family="Arial, sans-serif" font-size="16" >Work     About     Contact</text><path d="M64 110H1136" stroke="#59483e"/><text x="64" y="205" fill="#c58b65" font-family="Arial, sans-serif" font-size="13" >A WEB EXPERIENCE / CONCEPT STUDY</text><text x="60" y="315" fill="#e9ded0" font-family="Arial, sans-serif" font-size="78" >Small details.</text><text x="60" y="405" fill="#e7aa82" font-family="Arial, sans-serif" font-size="78" >Bigger ideas.</text><text x="64" y="478" fill="#b8a696" font-family="Arial, sans-serif" font-size="19" >A place for curiosity, craft, and the next thing.</text><rect x="64" y="530" width="195" height="56" fill="#e7b488" rx="4"/><text x="85" y="565" fill="#30241e" font-family="Arial, sans-serif" font-size="16" >Explore the work  ↗</text><g fill="none" stroke="url(#ink)" stroke-width="1.8" transform="translate(915 380) rotate(-28)"><ellipse rx="170" ry="225" transform="rotate(0)"/><ellipse rx="170" ry="225" transform="rotate(18)"/><ellipse rx="170" ry="225" transform="rotate(36)"/><ellipse rx="170" ry="225" transform="rotate(54)"/><ellipse rx="170" ry="225" transform="rotate(72)"/><ellipse rx="170" ry="225" transform="rotate(90)"/><ellipse rx="170" ry="225" transform="rotate(108)"/><ellipse rx="170" ry="225" transform="rotate(126)"/><ellipse rx="170" ry="225" transform="rotate(144)"/><ellipse rx="170" ry="225" transform="rotate(162)"/></g><text x="64" y="696" fill="#b8a696" font-family="Arial, sans-serif" font-size="12" >EDITORIAL WEBSITE</text><text x="885" y="696" fill="#b8a696" font-family="Arial, sans-serif" font-size="12" >ILLUSTRATIVE PREVIEW</text></svg>